<?xml version="1.0" encoding="UTF-8"?>
<!DOCTYPE svg PUBLIC "-//W3C//DTD SVG 1.1//EN" "http://www.w3.org/Graphics/SVG/1.1/DTD/svg11.dtd">
<!-- Creator: CorelDRAW -->
<svg xmlns="http://www.w3.org/2000/svg" xml:space="preserve" width="100%" height="100%" style="shape-rendering:geometricPrecision; text-rendering:geometricPrecision; image-rendering:optimizeQuality; fill-rule:evenodd; clip-rule:evenodd"
viewBox="0 0 600 600"
 xmlns:xlink="http://www.w3.org/1999/xlink"
 xmlns:dc="http://purl.org/dc/elements/1.1/"
 xmlns:cc="http://creativecommons.org/ns#"
 xmlns:rdf="http://www.w3.org/1999/02/22-rdf-syntax-ns#"
 xmlns:svg="http://www.w3.org/2000/svg"
 xmlns:sodipodi="http://sodipodi.sourceforge.net/DTD/sodipodi-0.dtd"
 xmlns:inkscape="http://www.inkscape.org/namespaces/inkscape"
 sodipodi:version="0.32"
 inkscape:version="0.47 r22583"
 sodipodi:docname="orkut.svg"
 version="1.0"
 inkscape:output_extension="org.inkscape.output.svg.inkscape">
 <defs>
  <style type="text/css">
   <![CDATA[
    .str1 {stroke:#DB00A5;stroke-width:141.55;stroke-linecap:round}
    .str0 {stroke:black;stroke-width:1.75245;stroke-linecap:square;stroke-dasharray:1.751125 3.502250}
    .fil2 {fill:none}
    .fil0 {fill:#DFDFE1}
    .fil1 {fill:url(#id2)}
   ]]>
  </style>
     <mask id="id0">
  <linearGradient id="id1" gradientUnits="userSpaceOnUse" x1="385.94" y1="-77.1714" x2="167.254" y2="570.308">
   <stop offset="0" style="stop-opacity:1; stop-color:white"/>
   <stop offset="1" style="stop-opacity:0; stop-color:white"/>
  </linearGradient>
      <rect style="fill:url(#id1)" x="22.7739" y="-29.0485" width="507.646" height="551.233"/>
     </mask>
  <linearGradient id="id2" gradientUnits="userSpaceOnUse" x1="370.632" y1="-31.8474" x2="182.562" y2="524.984">
   <stop offset="0" style="stop-color:white"/>
   <stop offset="1" style="stop-color:white"/>
  </linearGradient>
 </defs>
 <g id="Layer_x0020_1">
  <metadata id="CorelCorpID_0Corel-Layer"/>
  <g id="_59019896">
   <sodipodi:namedview id="base" pagecolor="#ffffff" bordercolor="#666666" borderopacity="1.0" inkscape:pageopacity="0.0" inkscape:pageshadow="2" inkscape:zoom="0.35" inkscape:cx="-44.119664" inkscape:cy="119.95386" inkscape:document-units="px" inkscape:current-layer="layer1" inkscape:window-width="100%" inkscape:window-height="80%" inkscape:window-x="1" inkscape:window-y="281" showgrid="false" inkscape:window-maximized="0"/>
   <g id="layer1" inkscape:label="Layer 1" inkscape:groupmode="layer">
    <path id="_61399736" class="fil0 str0" d="M509.428 -0.0225182l-418.857 0c-50.0382,0 -90.6174,40.5792 -90.6174,90.6174l0 418.81c0,50.0355 40.5792,90.6147 90.6174,90.6147l418.857 0.00264921c50.0355,-0.00264921 90.6147,-40.5819 90.6147,-90.62l0.0013246 -418.808c-0.0013246,-50.0382 -40.5805,-90.6174 -90.6187,-90.6174z" inkscape:export-ydpi="7.7063322" inkscape:export-xdpi="7.7063322" inkscape:export-filename="C:\Documents and Settings\Molumen\Desktop\path3511111.png"/>
    <path id="path1950" class="fil1" style="mask:url(#id0)" d="M441.505 25.6271l-283.013 0c-74.9063,0 -135.206,60.8059 -135.206,136.323l0 276.095c2.41872,58.9581 11.7492,21.6877 29.4963,-43.598 20.6333,-75.8732 87.8331,-142.18 169.671,-191.882 62.4603,-37.9287 132.37,-62.1543 259.634,-64.4591 72.175,-1.30076 65.8036,-93.6706 -40.5819,-112.479z" inkscape:export-ydpi="7.7063322" inkscape:export-xdpi="7.7063322" inkscape:export-filename="C:\Documents and Settings\Molumen\Desktop\path3511111.png" sodipodi:nodetypes="ccccsssc"/>
    <path id="path6405" class="fil2 str1" d="M476.554 300.029c0,95.8814 -75.1275,173.608 -167.801,173.608 -92.6732,0 -167.801,-77.7264 -167.801,-173.608 0,-95.8814 75.1275,-173.609 167.801,-173.609 92.6732,0 167.801,77.7277 167.801,173.609z" sodipodi:type="arc" sodipodi:cx="554.28571" sodipodi:cy="150.28572" sodipodi:rx="88.571426" sodipodi:ry="91.428574"/>
   </g>
  </g>
 </g>
</svg>
