<?xml version="1.0" encoding="UTF-8"?>
<!DOCTYPE svg PUBLIC "-//W3C//DTD SVG 1.1//EN" "http://www.w3.org/Graphics/SVG/1.1/DTD/svg11.dtd">
<!-- Creator: CorelDRAW -->
<svg xmlns="http://www.w3.org/2000/svg" xml:space="preserve" width="167.405mm" height="167.386mm" style="shape-rendering:geometricPrecision; text-rendering:geometricPrecision; image-rendering:optimizeQuality; fill-rule:evenodd; clip-rule:evenodd"
viewBox="0 0 167.405 167.386"
 xmlns:xlink="http://www.w3.org/1999/xlink">
 <defs>
  <style type="text/css">
   <![CDATA[
    .str0 {stroke:#1F1A17;stroke-width:0.0762}
    .fil0 {fill:#0093DD}
    .fil1 {fill:#1F1A17;fill-rule:nonzero}
   ]]>
  </style>
 </defs>
 <g id="Layer_x0020_1">
  <metadata id="CorelCorpID_0Corel-Layer"/>
  <path class="fil0 str0" d="M54.6438 42.5454c31.871,-5.8468 32.1257,-5.3809 -23.2954,41.7789 55.1855,-47.2753 55.0061,-47.4646 -27.5101,-19.4607 82.4232,-27.9345 82.8068,-27.6154 29.2336,46.3703 53.3953,-73.5834 53.03,-73.4454 19.0922,21.307 34.7686,-95.0434 34.389,-94.3079 14.3394,9.1919 20.5164,-104.235 20.5788,-103.847 32.1359,17.9527 -11.305,-121.913 -11.3801,-122.175 13.1877,-32.1513 -24.2672,-90.0557 -23.9842,-89.5076 51.7397,17.9932 -75.6677,-108.038 -75.6664,-107.943 -8.0492,-31.5668 -67.7652,-76.7031 -68.441,-76.5768 -76.1103,-16.4901 7.6425,-60.3391 8.4948,-60.2598 81.7257,-16.4916 -73.3061,-44.0431 -73.3698,-43.976 -27.8862,-7.7988 -45.8553,-36.2516 -45.3258,-36.5165 24.4879,-37.1734 -70.0463,0.5156 -70.2764,0.8763 -43.531,32.6121 -26.9006,-31.6355 -26.7406,-32.2423 0.5688,-60.9184 -27.5614,28.4691 -27.605,29.1912 -36.0706,67.9965 8.2522,-38.6223 8.2203,-39.0122 -24.0581,-33.1515z"/>
  <path class="fil1" d="M38.2612 78.6703c25.9163,-7.5648 25.753,-9.2162 0,-9.4596 41.5324,-9.2605 55.6716,-16.5084 70.694,-36.2401 1.5228,11.2498 2.401,8.5419 8.0049,-9.1542 -14.4916,17.1225 -27.9041,17.123 -56.9576,2.6278 21.0982,17.1264 28.4258,21.4979 20.2156,14.0582 1.7996,6.0381 -8.9819,1.6197 -47.3416,-18.8066 29.5473,16.9934 87.3111,12.8054 96.2717,-6.9802 -6.3748,21.6061 -7.3599,24.1649 0,9.1008 -19.4704,21.8359 -39.3399,32.7003 -68.1482,37.0764 12.9748,4.7739 17.0106,3.0613 -11.0177,8.6769 35.3685,-1.9096 48.0315,-1.6634 63.3157,1.2317 -6.2951,-6.362 -9.9693,-10.075 -18.3699,-18.5666 12.6471,9.3262 20.5674,13.874 39.6005,22.74 -30.3666,-3.5789 -49.6194,-2.8398 -96.2674,3.6955z"/>
 </g>
</svg>
