<?xml version="1.0" encoding="UTF-8"?>
<!DOCTYPE svg PUBLIC "-//W3C//DTD SVG 1.1//EN" "http://www.w3.org/Graphics/SVG/1.1/DTD/svg11.dtd">
<!-- Creator: CorelDRAW -->
<svg version="1.1" xmlns="http://www.w3.org/2000/svg" xmlns:xlink="http://www.w3.org/1999/xlink" x="0px" y="0px"
	 width="100%" height="95%" viewBox="0 0 1887 1795" xml:space="preserve">
 <defs>
  <style type="text/css">
   <![CDATA[
    .str0 {stroke:#1F1A17;stroke-width:0.9}
    .fil0 {fill:#0093DD}
    .fil1 {fill:#1F1A17;fill-rule:nonzero}
   ]]>
  </style>
 </defs>
 <g id="Layer_x0020_1">
  <metadata id="CorelCorpID_0Corel-Layer"/>
  <g id="_84798088">
   <path id="_84464976" class="fil0 str0" d="M600.282 411.507c376.431,-69.0567 379.439,-63.5551 -275.144,493.448 651.798,-558.366 649.681,-560.606 -324.918,-229.845 973.499,-329.937 978.031,-326.166 345.279,547.681 630.651,-869.1 626.341,-867.471 225.503,251.652 410.648,-1122.56 406.162,-1113.87 169.359,108.568 242.315,-1231.12 243.054,-1226.54 379.553,212.039 -133.522,-1439.92 -134.406,-1443.02 155.763,-379.737 -286.619,-1063.65 -283.274,-1057.18 611.095,212.515 -893.711,-1276.03 -893.695,-1274.91 -95.061,-372.836 -800.38,-905.94 -808.365,-904.447 -898.943,-194.765 90.2681,-712.661 100.33,-711.731 965.262,-194.779 -865.824,-520.198 -866.568,-519.404 -329.366,-92.1177 -541.596,-428.163 -535.338,-431.294 289.232,-439.048 -827.319,6.08504 -830.041,10.3465 -514.153,385.176 -317.718,-373.642 -315.833,-380.816 6.72047,-719.507 -325.524,336.252 -326.04,344.774 -426.027,803.109 97.4657,-456.17 97.0866,-460.776 -284.156,-391.552z"/>
   <path id="_84968880" class="fil1" d="M406.792 838.175c306.096,-89.3492 304.173,-108.852 0,-111.725 490.543,-109.376 657.536,-194.983 834.965,-428.036 17.9894,132.873 28.3606,100.89 94.5531,-108.122 -171.168,202.237 -329.584,202.245 -672.732,31.0441 249.195,202.273 335.737,253.906 238.769,166.042 21.2539,71.3126 -106.093,19.1291 -559.155,-222.13 348.991,200.712 1031.23,151.247 1137.07,-82.4409 -75.2917,255.185 -86.928,285.41 0,107.485 -229.97,257.914 -464.648,386.225 -804.905,437.919 153.25,56.3858 200.923,36.1547 -130.127,102.478 417.739,-22.5543 567.305,-19.6453 747.823,14.5488 -74.3492,-75.1406 -117.743,-118.998 -216.971,-219.287 149.379,110.147 242.924,163.863 467.726,268.579 -358.659,-42.2728 -586.063,-33.5433 -1137.02,43.6453z"/>
  </g>
 </g>
</svg>
